:FULLY-SPECIFIED
:FORCE-ALL-JOINTS-BE-3DOF
:DEGREES
238
root 5.54836 15.6283 -25.8241 9.69681 23.7546 -8.1038
lfemur -42.8558 35.7563 -7.05572
ltibia 54.2632 -0 0
lfoot -14.1769 9.53322 -0.0200301
ltoes -5.42591 0 0
rfemur -16.1621 -11.979 5.24392
rtibia 32.5316 -0 0
rfoot -39.9628 -9.00553 0.0981973
rtoes 56.5689 -0 0
lowerback 1.11202 -2.37036 3.24814
upperback -1.36305 -3.01318 3.8614
thorax -1.98463 -1.51783 2.23778
lowerneck -10.3129 -1.85538 -0.0782395
upperneck 1.44165 -2.43774 -0.391692
head 2.22657 -1.22543 -0.23341
lclavicle 6.65071e-14 2.24016e-14 1.14986e-30
lhumerus -55.2663 -32.5194 122.415
lradius 63.0816 -0 0
lwrist 19.7213 0 0
lhand 5.35861 13.3313 0.0166294
lfingers 7.12502 -0 0
lthumb 30.709 40.7601 0.00583808
rclavicle 6.65071e-14 2.24016e-14 1.14986e-30
rhumerus -34.4382 -25.3467 -69.4168
rradius 101.251 -0 0
rwrist -62.4025 0 0
rhand -12.4747 -20.9966 -0.545919
rfingers 7.12502 -0 0
rthumb 13.2823 -48.3731 0.773248
239
root 5.65072 15.6591 -25.8088 9.48089 25.5105 -8.1511
lfemur -43.2429 35.3468 -8.07462
ltibia 53.9091 0 0
lfoot -14.513 9.37744 0
ltoes -2.10601 0 0
rfemur -14.8992 -10.2826 5.15916
rtibia 32.1184 0 0
rfoot -40.7955 -11.5138 0
rtoes 56.3217 0 0
lowerback 1.02484 -2.4563 3.27099
upperback -1.44752 -3.12374 4.03554
thorax -2.013 -1.57213 2.40466
lowerneck -10.1156 -2.13247 -0.153872
upperneck 1.56112 -2.79665 -0.415299
head 2.23092 -1.40564 -0.245059
lclavicle 6.46299e-14 2.39536e-14 0
lhumerus -55.4307 -31.9108 122.567
lradius 63.2928 0 0
lwrist 19.6704 0 0
lhand 4.50578 12.9986 0
lfingers 7.12502 0 0
lthumb 29.8985 40.6042 0
rclavicle 6.46299e-14 2.39536e-14 0
rhumerus -34.8345 -27.2777 -68.8819
rradius 98.4128 0 0
rwrist -61.62 0 0
rhand -18.9446 -20.7622 0
rfingers 7.12502 0 0
rthumb 7.35864 -770.614 0
240
root 5.75929 15.6931 -25.7942 9.29629 27.323 -8.05835
lfemur -43.3948 34.6855 -8.99115
ltibia 53.4408 -0 0
lfoot -14.938 8.87096 0.0232153
ltoes 1.67134 -0 0
rfemur -13.7165 -8.48591 5.01493
rtibia 31.9494 -0 0
rfoot -41.7705 -14.1819 -0.0740387
rtoes 56.6573 -0 0
lowerback 0.906902 -2.54105 3.225
upperback -1.50394 -3.23947 4.11264
thorax -1.99544 -1.62868 2.50709
lowerneck -9.9706 -2.46494 -0.185488
upperneck 1.66692 -3.23811 -0.366108
head 2.23997 -1.62429 -0.245526
lclavicle 5.43386e-14 2.07864e-14 -4.70737e-30
lhumerus -55.5598 -31.6032 122.677
lradius 63.4009 -0 0
lwrist 19.402 0 0
lhand 3.97229 12.7363 -0.0129704
lfingers 7.12502 -0 0
lthumb 29.3916 40.4532 -0.00434506
rclavicle 5.43386e-14 2.07864e-14 -4.70737e-30
rhumerus -35.3882 -27.8985 -68.2898
rradius 94.8242 -0 0
rwrist -57.0546 0 0
rhand -22.4293 -21.842 0.203695
rfingers 7.12502 -0 0
rthumb 4.21897 -53.0095 -0.639135
241
root 5.87604 15.7302 -25.7789 9.1233 29.2164 -7.84348
lfemur -43.2458 33.7591 -9.80328
ltibia 52.7806 -0 0
lfoot -15.5134 8.04911 0.0479033
ltoes 6.03489 -0 0
rfemur -12.5107 -6.47169 4.8135
rtibia 31.8947 -0 0
rfoot -43.1588 -17.1757 -0.156669
rtoes 57.7288 -0 0
lowerback 0.752254 -2.63783 3.12624
upperback -1.53899 -3.37719 4.10348
thorax -1.93597 -1.69595 2.54769
lowerneck -9.86152 -2.84134 -0.159796
upperneck 1.7778 -3.7481 -0.254067
head 2.25703 -1.8744 -0.239072
lclavicle 3.66052e-14 1.37397e-14 -1.09291e-29
lhumerus -55.7038 -31.5282 122.762
lradius 63.4232 -0 0
lwrist 18.9397 0 0
lhand 3.6725 12.5222 -0.019037
lfingers 7.12502 -0 0
lthumb 29.1063 40.2987 -0.00635317
rclavicle 3.66052e-14 1.37397e-14 -1.09291e-29
rhumerus -36.0624 -27.4298 -67.5298
rradius 90.4664 -0 0
rwrist -49.117 0 0
rhand -23.8165 -23.9809 0.186982
rfingers 7.12502 -0 0
rthumb 2.99454 -55.6479 -0.994294
